# xmcd
#
# Track frame offsets:
#	150
#	24091
#	40535
#	55608
#	73144
#	86282
#	104141
#	131462
#	147141
#	168774
#	186737
#	204352
#	216515
#	235017
#	251475
#	267431
#	278626
#	297107
#	319153
#	336260
#
# Disc length: 4792 seconds
#
# Revision: 1
# Processed by: cddbd v1.5.1PL0 Copyright (c) Steve Scherf et al.
# Submitted via: audiograbber 1.83.01
#
DISCID=2612b614
DTITLE=сборник - Лучшая Дискотека 80-х. (2004)
DYEAR=1900
DGENRE=
TTITLE0=Ken Laszlo. - 1,2,3,4,5,6,7,8.
TTITLE1=Bananarama. - Venus.
TTITLE2=F.R. David. - Words.
TTITLE3=Sabrina. - Boys.
TTITLE4=Afric Simone. - Hafanana.
TTITLE5=Kim Wilde. - Cambodia.
TTITLE6=Desireless. - Voyage.
TTITLE7=Eruption. - One Way Ticket.
TTITLE8=Ottawan. - Hands Up!
TTITLE9=Fancy. - Flames Of Love.
TTITLE10=Boney-M. - Sunny.
TTITLE11=Samanta Fox. - I Only Wanna Be With You.
TTITLE12=Mr. Zivago. - Little Russian.
TTITLE13=Arabesque. - Midnight Dancer.
TTITLE14=Bad Boys Blue. - Pretty Young Girls.
TTITLE15=Christie. - Yellow River.
TTITLE16=Laura Branigan. - Self Control.
TTITLE17=Tny Esposito. - Kalimba De Luna.
TTITLE18=Mauro. - Buona Sera, Ciao.
TTITLE19=Radiorama. - Yeti.
EXTD=
EXTT0=
EXTT1=
EXTT2=
EXTT3=
EXTT4=
EXTT5=
EXTT6=
EXTT7=
EXTT8=
EXTT9=
EXTT10=
EXTT11=
EXTT12=
EXTT13=
EXTT14=
EXTT15=
EXTT16=
EXTT17=
EXTT18=
EXTT19=
PLAYORDER=
